<?xml version="1.0" encoding="UTF-8" standalone="no"?>
<svg
   xmlns:dc="http://purl.org/dc/elements/1.1/"
   xmlns:cc="http://creativecommons.org/ns#"
   xmlns:rdf="http://www.w3.org/1999/02/22-rdf-syntax-ns#"
   xmlns:svg="http://www.w3.org/2000/svg"
   xmlns="http://www.w3.org/2000/svg"
   id="svg14"
   version="1.1"
   style="overflow:visible"
   viewBox="-240 -126 480 252"
   height="1008px"
   width="1920px">
  <metadata
     id="metadata20">
    <rdf:RDF>
      <cc:Work
         rdf:about="">
        <dc:format>image/svg+xml</dc:format>
        <dc:type
           rdf:resource="http://purl.org/dc/dcmitype/StillImage" />
      </cc:Work>
    </rdf:RDF>
  </metadata>
  <defs
     id="defs18" />
  <rect
     id="rect2"
     fill-opacity="0"
     fill="rgb(0,0,0)"
     height="252"
     width="480"
     y="-126"
     x="-240" />
  <svg
     id="svg12"
     version="1.1"
     y="-250"
     x="-250"
     viewBox="-250 -250 500 500"
     height="500"
     width="500"
     style="overflow:visible">
    <g
       style="fill:#ffffff;stroke-linejoin:round"
       id="g10">
      <path
         style="fill:#000000;fill-opacity:1;stroke:none;stroke-linecap:butt;stroke-linejoin:round"
         id="path4"
         d="m 172.476,60.023 c 2.38211,-4.53801 4.76878,-8.90936 7.52444,0 V 87.5698 H 172.476 Z m -15.0488,0 c 2.50818,-3.15886 5.01624,-6.18153 7.52443,0 V 87.5698 H 157.4272 Z M 0.6582,60.0229 H 5.67433 V 87.5697 H 0.6582 Z m -9.16043,0 h 5.01613 v 27.5468 h -5.01613 z m -156.448,1e-4 h 7.52446 v 27.5468 h -7.52446 z m -15.0488,0 h 7.52446 v 27.5468 h -7.52446 z" />
      <path
         style="fill:#000000;fill-opacity:1;stroke:none;stroke-linecap:butt;stroke-linejoin:round"
         id="path6"
         d="m 0.657999,-110.416 h 5.01613 V 60.023 h -5.01613 z m -9.16043,0 h 5.01613 V 60.023 h -5.01613 z m -38.0233,0 h 20.0646 V 60.023 h -20.0646 z m 70.4987,0 h 15.0489 V 60.023 h -15.0489 z m 40.0639,0 h 15.0486 V 60.023 h -15.0486 z m -126.503,0 h 10.0324 V 60.023 h -10.0324 z m -52.050699,-3e-4 h 10.0324 v 170.439 h -10.0324 z m -33.1567,3e-4 h 10.0326 V 60.023 h -10.0326 z m 305.101,-3e-4 h 7.52419 v 170.439 h -7.52419 z m 15.0485,0 h 7.52445 v 170.439 h -7.52445 z m -30.0973,3e-4 h 7.52434 V 60.023 h -7.52434 z m -21.0839,-3e-4 h 7.52445 v 170.439 h -7.52445 z m -21.189,0 h 7.52432 v 170.439 h -7.52432 z m -15.048601,0 h 7.52444 v 170.439 h -7.52444 z m -40.8499,0 h 7.52444 v 170.439 h -7.52444 z m -33.6024,0 h 7.52444 v 170.439 h -7.52444 z m -30.3078,3e-4 h 7.52431 V 60.023 h -7.52431 z m -59.9572,-3e-4 h 7.52445 v 170.439 h -7.52445 z m -15.154,3e-4 h 7.52444 V 60.023 h -7.52444 z m -36.237899,0 h 7.52444 V 60.023 h -7.52444 z m -33.8987,-3e-4 h 7.52419 v 170.439 h -7.52419 z m -15.0488,0 h 7.52446 v 170.439 h -7.52446 z" />
      <path
         style="fill:#000000;fill-opacity:1;stroke:none;stroke-linecap:butt;stroke-linejoin:round"
         id="path8"
         d="m 132.814,109.693 h 7.69811 c 0.61992,-14.982801 1.80827,-22.784201 10.6946,-33.633801 v -4.59817 h -25.4191 v 6.35476 h 17.2045 c -7.28478,10.1263 -9.50636,18.5994 -10.178,31.877301 z m -29.1844,-5.01151 c -3.20318,0 -5.78634,-2.68657 -6.50975,-9.661341 1.91162,-2.9449 4.18495,-4.02985 6.25155,-4.02985 3.30656,0 5.42477,2.11827 5.42477,6.66476 0,4.649881 -2.32494,7.026431 -5.16657,7.026431 z m 11.573,-29.604001 c -2.32494,-2.37659 -5.73475,-4.33986 -10.3846,-4.33986 -7.69811,0 -14.7762,6.09648 -14.7762,20.356 0,13.484501 6.45814,19.322701 13.7429,19.322701 6.50976,0 11.9862,-4.90817 11.9862,-12.761301 0,-8.21471 -4.54651,-12.0379 -10.9529,-12.0379 -2.47992,0 -5.78649,1.54996 -7.85309,4.08155 0.30996,-9.55802 3.9266,-12.8646 8.31803,-12.8646 2.2217,0 4.54652,1.23995 5.88984,2.78989 z M 67.082,110.41629 c 7.07818,0 13.3812,-4.90817 13.3812,-13.432901 0,-8.31805 -5.37317,-12.1412 -11.7796,-12.1412 -1.75665,0 -3.09998,0.36165 -4.59815,1.08496 l 0.72328,-8.11139 h 13.8978 v -6.35477 h -20.4593 l -1.03324,18.5477 3.46155,2.27325 c 2.22158,-1.44662 3.46154,-2.01493 5.73473,-2.01493 3.87487,0 6.45816,2.47992 6.45816,6.92309 0,4.494861 -2.78989,7.026431 -6.76812,7.026431 -3.56489,0 -6.25142,-1.7566 -8.42138,-3.87486 l -3.51315,4.8565 c 2.84149,2.84157 6.87133,5.21817 12.9162,5.21816 z m -41.9199,-16.429501 5.94146,-9.50634 c 1.08498,-2.06661 2.11822,-4.18485 3.04821,-6.19979 h 0.20661 c -0.10344,2.22159 -0.30996,5.68313 -0.30996,7.90472 v 7.80141 z m 20.5109,0 h -4.54653 v -22.5259 h -9.09291 l -14.2596,23.1459 v 5.1665 h 16.2745 v 9.919661 h 7.07805 v -9.919661 h 4.54653 z m -80.8794,16.429501 c 7.28479,0 13.4328,-4.08153 13.4328,-11.108001 0,-5.01149 -3.30656,-8.21471 -7.64637,-9.40302 v -0.25832 c 4.08147,-1.60162 6.4064,-4.59819 6.4064,-8.73138 0,-6.56145 -5.01145,-10.178 -12.3996,-10.178 -4.49477,0 -8.16303,1.80828 -11.4696,4.70151 l 3.87487,4.64985 c 2.27332,-2.06661 4.49491,-3.35823 7.23317,-3.40989 3.25481,0.0516 5.11481,1.80827 5.11481,4.80484 0,3.40989 -2.27332,5.83815 -9.29976,5.83815 v 5.47647 c 8.318149,0 10.5397,2.32493 10.5397,6.09647 0,3.409891 -2.63489,5.321471 -6.50976,5.321471 -3.46166,0 -6.25154,-1.70494 -8.52474,-3.92652 l -3.5649,4.80484 c 2.68651,3.04822 6.7681,5.32149 12.8129,5.32149 z m -47.1807,-0.72332 h 25.6259 v -6.40646 h -8.31815 c -1.75651,0 -4.28817,0.20667 -6.19979,0.41335 6.97482,-6.819801 12.7097,-14.259501 12.7097,-21.182601 0,-7.12977 -4.80486,-11.7796 -12.038,-11.7796 -5.21805,0 -8.62798,2.06662 -12.1413,5.78648 l 4.1332,4.13321 c 1.91162,-2.11829 4.23656,-3.92655 7.02645,-3.92655 3.61652,0 5.73485,2.32492 5.73485,6.19979 0,5.88979 -6.14817,13.0712 -16.532801,22.370901 z m -33.7222,-7e-5 h 22.9908 v -6.14812 h -7.18143 V 71.460879 h -5.6315 c -2.42818,1.49829 -5.06307,2.47993 -8.88631,3.20323 v 4.70151 h 6.92308 v 24.179201 h -8.21466 z m -23.3375,0.72323 c 7.74974,0 12.9163,-6.81977 12.9163,-19.994301 0,-13.1745 -5.16656,-19.6843 -12.9163,-19.6843 -7.80133,0 -12.9679,6.45811 -12.9679,19.6843 0,13.174601 5.16657,19.994301 12.9679,19.994301 z m 0,-5.94148 c -3.30655,0 -5.78647,-3.30656 -5.78647,-14.052901 0,-10.6946 2.47992,-13.7945 5.78647,-13.7945 3.25495,0 5.73487,3.09988 5.73487,13.7945 0,10.746301 -2.47992,14.052901 -5.73487,14.052901 z" />
    </g>
  </svg>
</svg>
